# xmcd
#
# Track frame offsets:
#	150
#	28482
#	64975
#	104010
#	128830
#	154125
#	184595
#	201970
#	227695
#	248327
#	276350
#	314120
#
# Disc length: 4706 seconds
#
# Revision: 6
# Processed by: cddbd v1.5.2PL0 Copyright (c) Steve Scherf et al.
# Submitted via: EZCDAudioConverter 1.3.4.1
#
DISCID=b412600c
DTITLE=Grace Jones - Private Life The Compass Point Session - Disc 1
DYEAR=1998
DGENRE=Dance
TTITLE0=Private Life [Long Version]
TTITLE1=Private Life [Dub Version]
TTITLE2=Love Is The Drug [Long Version]
TTITLE3=Breakdown
TTITLE4=Warm Leatherette [Long Version]
TTITLE5=The Hunter Gets Captured By The Game [Long Version]
TTITLE6=I've Done It Again
TTITLE7=Pars [Long Version]
TTITLE8=Pull Up To The Bumper
TTITLE9=Use Me [Long Version]
TTITLE10=She's Lost Control [Long Version]
TTITLE11=She's Lost Control [Dub Version]
EXTD=
EXTT0=
EXTT1=
EXTT2=
EXTT3=
EXTT4=
EXTT5=
EXTT6=
EXTT7=
EXTT8=
EXTT9=
EXTT10=
EXTT11=
PLAYORDER=
